<svg width="70" height="8" viewBox="0 0 70 8" fill="none" xmlns="http://www.w3.org/2000/svg">
<g clip-path="url(#clip0_7_11632)">
<path d="M68.4969 7.89551C68.6769 7.89551 68.8191 7.83232 68.9233 7.70552C69.0296 7.59293 69.0819 7.45272 69.0819 7.28566C69.0748 7.11873 69.0226 6.98549 68.9233 6.88678C68.8191 6.79024 68.6805 6.74288 68.5076 6.74288C68.3134 6.75002 68.1676 6.81272 68.0686 6.9323C67.9785 7.05532 67.9316 7.18351 67.9316 7.31742C67.9316 7.44927 67.9785 7.57574 68.0686 7.69532C68.1603 7.82855 68.3025 7.89551 68.4969 7.89551Z" fill="#525252"/>
<path d="M5.76994 7.85282C6.12926 7.85282 6.48306 7.83288 6.83287 7.79528C7.19395 7.75217 7.48457 7.69642 7.70509 7.62557C7.79939 7.58477 7.86597 7.54693 7.89955 7.51575C7.92902 7.48252 7.95885 7.42344 7.99044 7.33791C8.04563 7.14036 8.09952 6.89513 8.14755 6.59898C8.20145 6.30466 8.22716 6.12865 8.22716 6.07442C8.22716 5.98556 8.20145 5.93455 8.14755 5.92434C8.09212 5.92434 8.0569 5.97536 8.0421 6.07442C8.02895 6.17462 7.98832 6.30625 7.92163 6.47078C7.85869 6.64035 7.76604 6.78482 7.64192 6.90338C7.42903 7.096 7.16612 7.22602 6.85518 7.28988C6.54036 7.36418 6.17905 7.40017 5.77194 7.40017C4.60333 7.3871 3.66992 7.01883 2.97195 6.29158C2.25343 5.58726 1.89235 4.75167 1.88496 3.78411C1.87756 3.27757 1.94602 2.80531 2.09045 2.3726C2.21832 1.93807 2.47396 1.55133 2.85711 1.20921C2.95363 1.11737 3.07188 1.0267 3.20903 0.939563C3.34407 0.862172 3.50893 0.788217 3.70151 0.714268C3.89773 0.643293 4.13316 0.585612 4.40512 0.544795C4.66803 0.506734 4.97545 0.487122 5.32913 0.487122C6.33099 0.50673 7.04587 0.692591 7.47741 1.04985C7.62172 1.16175 7.73281 1.30483 7.8143 1.4807C7.89027 1.6583 7.92902 1.84761 7.92902 2.05352C7.92162 2.19145 7.95133 2.26059 8.01791 2.26059C8.07533 2.26726 8.10692 2.19799 8.1142 2.05352C8.12172 1.80323 8.13076 1.46398 8.14579 1.03666C8.1735 0.712423 8.19217 0.52633 8.19945 0.48196C8.21049 0.424406 8.16422 0.390132 8.0623 0.376834C7.73469 0.348769 7.36797 0.299675 6.96438 0.228819C6.39757 0.149706 5.87738 0.110136 5.4051 0.110136C4.58842 0.116928 3.91828 0.215629 3.39233 0.409738C2.86439 0.6121 2.44061 0.863986 2.12204 1.16621C1.65539 1.61577 1.3367 2.09114 1.16444 2.58804C0.994174 3.08988 0.910921 3.51409 0.918436 3.86149C0.91092 4.33684 0.999811 4.83262 1.18675 5.34558C1.37557 5.86187 1.72009 6.3426 2.22008 6.78688C3.02186 7.49074 4.20526 7.84618 5.76994 7.85133V7.85282Z" fill="#525252"/>
<path d="M11.6708 1.62916C11.6708 1.57997 11.6971 1.54671 11.7495 1.52951C11.8711 1.50221 12.085 1.48515 12.3907 1.47632C13.4756 1.49627 14.0279 2.074 14.0459 3.21136C14.0343 3.88243 13.8386 4.32579 13.4608 4.54387C13.3524 4.60864 13.2355 4.6521 13.1105 4.67504C12.9825 4.69657 12.8608 4.7082 12.7459 4.7082C12.5271 4.7082 12.3264 4.69388 12.1424 4.66633C11.955 4.63732 11.8219 4.60716 11.7414 4.57231C11.6936 4.54228 11.6708 4.50604 11.6708 4.46729V1.62916ZM10.9096 5.22916C10.9096 6.09239 10.8931 6.72218 10.8585 7.11728C10.8456 7.24603 10.8207 7.34832 10.7847 7.42788C10.7469 7.51571 10.6812 7.57095 10.5841 7.59389C10.4888 7.61542 10.3935 7.62705 10.2965 7.62705C10.2472 7.63568 10.2226 7.65323 10.2226 7.68024C10.2226 7.72358 10.2735 7.74561 10.3772 7.74561C10.8143 7.73377 11.1135 7.72658 11.2713 7.72073C11.424 7.72658 11.8155 7.73382 12.4467 7.74561C12.5501 7.74561 12.6011 7.7236 12.6011 7.68024C12.6011 7.6532 12.5763 7.63428 12.5271 7.62705C12.4054 7.62705 12.2592 7.61546 12.0914 7.59389C11.9517 7.57095 11.8597 7.51571 11.8155 7.42788C11.766 7.34969 11.7346 7.24603 11.7217 7.119C11.6806 6.72218 11.6641 6.09238 11.6708 5.23075V5.0229C11.6708 4.97693 11.6936 4.9549 11.7399 4.9549L12.9167 4.97083C12.9659 4.97083 13.007 4.98814 13.0383 5.02128C13.2801 5.32478 13.6268 5.75164 14.077 6.30485C14.345 6.62966 14.5817 6.89668 14.7871 7.1057C14.9829 7.31804 15.1767 7.47546 15.3708 7.58049C15.4908 7.63988 15.6289 7.68023 15.78 7.70373C15.9264 7.73069 16.1303 7.74561 16.3913 7.74561H17.0686C17.2297 7.74561 17.3088 7.7236 17.3021 7.68024C17.2922 7.6532 17.2627 7.63566 17.2132 7.62705C17.1507 7.63568 17.0259 7.62704 16.8402 7.60124C16.725 7.59069 16.5705 7.54185 16.3749 7.45815C16.1695 7.37583 15.9362 7.21705 15.6747 6.97914C15.1291 6.42319 14.4667 5.68447 13.6909 4.76196C14.1181 4.39771 14.4206 4.05305 14.5983 3.72813C14.7625 3.39918 14.8446 3.0754 14.8446 2.75918C14.8382 2.45191 14.7591 2.19647 14.6082 1.99295C14.5454 1.89183 14.4798 1.80526 14.4073 1.73486C14.3302 1.66527 14.258 1.61174 14.1907 1.57861C13.9342 1.41729 13.6579 1.31044 13.3588 1.25689C13.0596 1.21802 12.7539 1.1976 12.4399 1.1976C11.9701 1.20931 11.5951 1.21801 11.3141 1.22365C11.1465 1.21207 10.7862 1.2035 10.2324 1.1976C10.1287 1.1976 10.0781 1.21939 10.0781 1.26273C10.0781 1.2987 10.1042 1.31592 10.1569 1.31592C10.2719 1.31592 10.3803 1.32474 10.4789 1.342C10.6401 1.36344 10.7504 1.4157 10.806 1.49791C10.8552 1.57129 10.8834 1.68434 10.8898 1.83717C10.903 1.92224 10.9096 2.54746 10.9096 3.71246L10.9096 5.22916Z" fill="#525252"/>
<path d="M19.3205 4.87878C19.29 4.87878 19.2802 4.85905 19.2931 4.81962L20.1159 2.48217C20.1676 2.34928 20.2159 2.34928 20.2577 2.48217L21.1503 4.81962C21.1696 4.85905 21.155 4.87878 21.1083 4.87878H19.3205ZM18.0127 6.79625C17.937 7.01536 17.8387 7.19811 17.7194 7.3412C17.6002 7.49094 17.4359 7.58014 17.2267 7.60777C17.1316 7.61887 17.0398 7.62458 16.9513 7.62458C16.9028 7.62458 16.8755 7.64203 16.8691 7.67837C16.8691 7.72114 16.9286 7.74314 17.0477 7.74314C17.5712 7.73131 17.9241 7.72434 18.1044 7.71858C18.2833 7.7243 18.528 7.73131 18.8358 7.74314C18.921 7.74314 18.968 7.72115 18.9726 7.67837C18.9726 7.64202 18.9419 7.62458 18.8826 7.62458H18.7906C18.7085 7.62458 18.6312 7.60166 18.5619 7.55719C18.4764 7.52404 18.4331 7.46329 18.4331 7.37546C18.4331 7.21391 18.4764 7.02095 18.5619 6.79623L19.124 5.25952C19.1415 5.21503 19.1738 5.19199 19.2208 5.19199H21.2323C21.2758 5.19199 21.3034 5.2094 21.3147 5.24208L22.1892 7.37546C22.2131 7.44586 22.2197 7.49791 22.2069 7.53117C22.1892 7.57162 22.1635 7.59743 22.1343 7.60774C22.0877 7.61334 22.0649 7.6332 22.0649 7.66977C22.0649 7.70693 22.1603 7.72744 22.3484 7.72744C23.0897 7.73868 23.5794 7.74316 23.816 7.74316C23.935 7.74316 23.9977 7.72115 24.0046 7.67837C24.0046 7.64202 23.9738 7.62461 23.9125 7.62461C23.8126 7.63324 23.6869 7.61637 23.5374 7.57463C23.4437 7.5572 23.3311 7.4852 23.199 7.35804C23.0556 7.23135 22.9011 6.98369 22.732 6.6145C21.7882 4.38048 21.0601 2.6406 20.5512 1.39535C20.4561 1.17625 20.3869 1.07089 20.3401 1.08281C20.3047 1.0709 20.2351 1.18177 20.1355 1.41532L18.0127 6.79625Z" fill="#525252"/>
<path d="M26.0534 2.41226C26.4814 2.85505 27.3049 3.68448 28.524 4.90073C29.7948 6.13646 30.6182 6.92103 30.9909 7.25421C31.4333 7.65023 31.6645 7.83573 31.6824 7.80959C31.72 7.80959 31.7443 7.77657 31.7572 7.70858C31.7625 7.6375 31.7656 7.4654 31.7656 7.19482L31.785 2.10111C31.7784 1.84049 31.801 1.65245 31.8532 1.53642C31.8973 1.42085 31.9914 1.35127 32.1363 1.328C32.2437 1.31228 32.3205 1.30346 32.3625 1.30346C32.434 1.30346 32.4701 1.28297 32.4701 1.24271C32.4634 1.20375 32.4065 1.18504 32.299 1.18504C32.1085 1.18504 31.9413 1.1876 31.7962 1.19354C31.6515 1.2049 31.5506 1.21082 31.495 1.21082C31.3292 1.19933 31.0024 1.19055 30.5122 1.18504C30.3853 1.18504 30.3235 1.20371 30.3235 1.24271C30.3172 1.28295 30.3417 1.30346 30.3969 1.30346C30.5044 1.30346 30.6587 1.3179 30.8589 1.34541C31.0115 1.37442 31.1144 1.44677 31.1634 1.56234C31.2074 1.68399 31.2283 1.88681 31.2283 2.17046L31.3342 6.59105C30.8946 6.14918 30.1383 5.39259 29.0639 4.32149C27.4077 2.68297 26.4065 1.69007 26.0585 1.34268C26.0095 1.28775 25.9559 1.22961 25.8975 1.16736C25.8291 1.10223 25.7736 1.0675 25.7314 1.062C25.6973 1.062 25.6711 1.0893 25.6533 1.14272C25.6336 1.20486 25.6256 1.32365 25.6256 1.49896L25.6156 6.47837C25.6156 6.85855 25.6011 7.13246 25.5701 7.29596C25.5296 7.45785 25.4514 7.5522 25.3341 7.58075C25.1669 7.62283 25.0382 7.64014 24.9454 7.63143C24.8933 7.63143 24.8672 7.64953 24.8672 7.68496C24.8672 7.72841 24.9178 7.75033 25.0187 7.75033C25.4922 7.73884 25.795 7.73153 25.9266 7.72611C26.031 7.73153 26.3643 7.73884 26.926 7.75033C27.0364 7.75033 27.0918 7.72844 27.0918 7.68496C27.0918 7.64951 27.0675 7.63143 27.0184 7.63143C26.9115 7.64015 26.7534 7.6228 26.5468 7.58075C26.4262 7.55221 26.3368 7.46402 26.2782 7.31314C26.2179 7.16879 26.184 6.92264 26.1773 6.57387L26.0534 2.41226Z" fill="#525252"/>
<path d="M44.2401 7.39436C43.7073 7.38808 43.2673 7.21196 42.9202 6.86548C42.5651 6.52656 42.3861 6.0833 42.3798 5.53331C42.3798 5.18706 42.4598 4.89227 42.6195 4.64955C42.7781 4.41325 42.9747 4.22294 43.2145 4.07824C43.3603 4.26146 43.5456 4.47495 43.7731 4.71778C44.003 4.96715 44.1841 5.15932 44.3136 5.29209C44.7344 5.70071 45.2957 6.18856 45.9979 6.75587C45.8443 6.91077 45.6205 7.05225 45.326 7.17872C45.0414 7.3218 44.6797 7.39436 44.2401 7.39436ZM43.9137 7.85059C44.2674 7.84426 44.5773 7.80127 44.8475 7.71918C45.1182 7.64397 45.3501 7.55557 45.5418 7.45457C45.7451 7.3453 45.9067 7.23799 46.0266 7.13434C46.1386 7.03608 46.2202 6.96361 46.2699 6.91924C46.7592 7.27581 47.1255 7.50111 47.3668 7.59742C47.6053 7.68995 47.8837 7.73329 48.2022 7.72778H49.1139C49.2097 7.72172 49.261 7.70267 49.2672 7.66977C49.2672 7.62932 49.2256 7.60923 49.1411 7.60923C48.9651 7.60923 48.7796 7.57315 48.5825 7.49952C48.3701 7.42866 48.188 7.35332 48.034 7.27581C47.9029 7.20496 47.735 7.10259 47.5301 6.97097C47.3207 6.8382 47.0615 6.65372 46.7495 6.41684C46.9671 6.1685 47.1752 5.85399 47.3752 5.47254C47.5653 5.09751 47.663 4.73086 47.6693 4.37279C47.6693 4.32464 47.663 4.28451 47.6517 4.24988C47.6263 4.22293 47.5766 4.2054 47.5014 4.19932C46.9815 4.15746 46.6121 4.13592 46.3913 4.13592C46.2987 4.13592 46.2489 4.15606 46.2428 4.19667C46.2489 4.23545 46.2844 4.25423 46.351 4.25423C46.4265 4.25423 46.5082 4.25997 46.596 4.27181C46.6808 4.29317 46.7512 4.33497 46.8091 4.39425C46.9322 4.53274 46.9912 4.6731 46.9849 4.81733C46.9737 5.39633 46.8137 5.87695 46.5082 6.25806C45.9323 5.78442 45.3469 5.26618 44.7501 4.70495C44.2653 4.21963 43.9041 3.80952 43.6644 3.4776C43.4098 3.1411 43.2833 2.81041 43.2833 2.4872C43.29 2.08328 43.4194 1.79161 43.6735 1.61103C43.9076 1.43927 44.1711 1.35249 44.4656 1.35249C44.6686 1.35249 44.8511 1.39021 45.0142 1.46679C45.1629 1.53467 45.2894 1.62398 45.3916 1.73393C45.5102 1.84343 45.5918 1.96475 45.638 2.09752C45.6683 2.23028 45.6828 2.35445 45.6828 2.4714C45.6764 2.58685 45.6955 2.642 45.7388 2.63592C45.7772 2.64763 45.8091 2.59853 45.8348 2.4872C45.8523 2.40075 45.8684 2.2508 45.8792 2.03971C45.8923 1.81889 45.8987 1.63693 45.8987 1.49281C45.8987 1.43927 45.8957 1.39571 45.8892 1.36143C45.8717 1.3282 45.8331 1.29779 45.7739 1.27325C45.5149 1.13486 45.1422 1.06217 44.6544 1.05667C44.0288 1.0685 43.5426 1.24712 43.1939 1.59371C42.8357 1.93 42.655 2.28233 42.655 2.65175C42.6421 3.02139 42.8003 3.41993 43.1284 3.84862C42.738 4.04342 42.4021 4.31042 42.1224 4.65278C41.8184 4.99904 41.6648 5.42647 41.6582 5.93473C41.6582 6.12104 41.7017 6.32272 41.7895 6.544C41.8776 6.76046 42.0073 6.96845 42.1797 7.16451C42.5382 7.60478 43.1171 7.83304 43.9137 7.85059Z" fill="#525252"/>
<path d="M55.6706 7.84814C56.0297 7.84814 56.3831 7.82828 56.7335 7.79071C57.0943 7.74771 57.3851 7.69187 57.6054 7.62089C57.7 7.57997 57.7666 7.54236 57.7999 7.51061C57.8298 7.47801 57.8591 7.41865 57.8907 7.33347C57.9464 7.13592 58.0001 6.89066 58.0482 6.59451C58.1017 6.30008 58.1277 6.12397 58.1277 6.06974C58.1277 5.981 58.1017 5.92999 58.0482 5.9199C57.9926 5.9199 57.9576 5.97091 57.9425 6.06974C57.9295 6.16995 57.8891 6.30179 57.8223 6.46621C57.7592 6.63566 57.6667 6.78037 57.5427 6.89881C57.3298 7.09154 57.0667 7.22098 56.7558 7.28542C56.4408 7.35948 56.0797 7.3957 55.6724 7.3957C54.5038 7.38263 53.5703 7.01413 52.8723 6.28711C52.1539 5.58268 51.793 4.74663 51.7855 3.7793C51.7782 3.27264 51.8468 2.80084 51.9911 2.3678C52.1189 1.93349 52.3745 1.54713 52.7576 1.20477C52.8543 1.11247 52.9726 1.02178 53.1097 0.935098C53.2446 0.857364 53.4094 0.783293 53.6021 0.709229C53.7986 0.63883 54.0337 0.581164 54.3055 0.539886C54.5687 0.502167 54.876 0.482552 55.2295 0.482552C56.2315 0.50216 56.9463 0.687797 57.3779 1.04494C57.5221 1.15707 57.6333 1.30015 57.7147 1.47603C57.7908 1.65386 57.8298 1.84303 57.8298 2.04872C57.8223 2.18677 57.8518 2.25569 57.9185 2.25569C57.976 2.26235 58.0075 2.19341 58.0147 2.04872C58.022 1.79878 58.0315 1.45953 58.0465 1.03198C58.0741 0.70774 58.0927 0.521887 58.1001 0.477285C58.111 0.419958 58.0646 0.385443 57.963 0.372029C57.6351 0.344049 57.2685 0.294744 56.8648 0.224119C56.2982 0.145121 55.7778 0.105461 55.3057 0.105461C54.4889 0.112253 53.8187 0.210724 53.2927 0.405064C52.7651 0.607652 52.3411 0.859316 52.0225 1.16177C51.5559 1.61122 51.2371 2.08644 51.0654 2.58347C50.8949 3.0852 50.8114 3.50953 50.8188 3.85705C50.8114 4.3324 50.9003 4.82724 51.0874 5.34054C51.2764 5.8574 51.6206 6.33816 52.1207 6.78198C52.9222 7.48618 54.1058 7.84149 55.6706 7.84676L55.6706 7.84814Z" fill="#525252"/>
<path d="M60.7576 4.12038C60.7637 3.17036 61.0286 2.45766 61.5507 1.98552C62.06 1.51349 62.7142 1.27709 63.5141 1.27709C64.2849 1.27709 64.9517 1.54628 65.5147 2.08618C66.0796 2.63056 66.3702 3.42237 66.3811 4.46629C66.3751 5.08771 66.2826 5.59024 66.1006 5.97593C65.9158 6.36759 65.6818 6.67004 65.3997 6.88295C65.1221 7.09185 64.8397 7.23117 64.551 7.30489C64.2622 7.38652 64.0041 7.42688 63.7773 7.42688C62.9074 7.42129 62.1917 7.11891 61.6337 6.52031C61.056 5.93294 60.7637 5.13266 60.7576 4.12038ZM59.8634 4.36104C59.8567 5.18425 60.1456 5.94268 60.7297 6.6337C61.3089 7.36094 62.2403 7.73367 63.5241 7.75684C64.6777 7.73941 65.5928 7.3912 66.2678 6.71027C66.9396 6.0407 67.2786 5.21189 67.2851 4.22105C67.2724 3.20339 66.92 2.40895 66.2259 1.83878C65.5474 1.27308 64.6646 0.988047 63.5792 0.982314C62.2889 1.01234 61.3481 1.39976 60.7524 2.14237C60.1535 2.86813 59.8567 3.6065 59.8634 4.36104Z" fill="#525252"/>
<path d="M34.9586 5.22824C34.9586 6.08883 34.9431 6.71782 34.9101 7.11281C34.8979 7.23961 34.8742 7.34178 34.8395 7.42146C34.8036 7.50917 34.741 7.56398 34.6486 7.58691C34.5579 7.60891 34.4669 7.62013 34.3742 7.62013C34.3274 7.62876 34.3041 7.64619 34.3041 7.67355C34.3041 7.71655 34.3526 7.73868 34.4497 7.73868C34.6001 7.73868 34.7756 7.73386 34.9762 7.72275C35.181 7.71562 35.305 7.70989 35.3409 7.71259C35.535 7.72532 36.7518 7.74928 38.0554 7.76304C38.2353 7.76474 38.3634 7.75148 38.4281 7.72982C38.4918 7.7085 38.5353 7.6421 38.5594 7.53949C38.5865 7.4246 38.6159 7.26626 38.6411 7.07112C38.6657 6.87689 38.6782 6.75136 38.6799 6.69885C38.6829 6.62008 38.6671 6.57421 38.6222 6.57203C38.5823 6.56989 38.5544 6.61549 38.5423 6.69885C38.4936 7.03272 38.3549 7.2469 38.1305 7.32486C38.0108 7.36638 37.8618 7.38973 37.6967 7.39948C37.5272 7.40969 37.3759 7.41576 37.2491 7.41679C36.8159 7.41978 36.0623 7.37813 35.9294 7.2815C35.7968 7.18496 35.7259 6.99302 35.7196 6.70891C35.7102 6.2722 35.7102 5.78046 35.7196 5.23241V4.47294C35.7196 4.43419 35.7401 4.41367 35.7825 4.41367C36.1722 4.41367 37.0762 4.42388 37.556 4.45562C37.7306 4.46686 37.8568 4.5087 37.9224 4.56935C37.9835 4.6261 38.0161 4.69523 38.0286 4.75841C38.0504 4.86607 38.065 4.96009 38.065 5.03931C38.065 5.09309 38.0868 5.11865 38.132 5.11865C38.1667 5.11865 38.1909 5.09816 38.1932 5.05676C38.1949 5.02463 38.1932 4.99013 38.1932 4.95883C38.1932 4.83225 38.199 4.64559 38.2308 4.40504C38.2678 4.12677 38.3059 3.96328 38.3076 3.91925C38.3093 3.87545 38.2919 3.85139 38.259 3.85139C38.2289 3.85139 38.1884 3.89176 38.1258 3.96123C38.0551 4.03977 37.906 4.0776 37.6922 4.08356C37.5541 4.08741 36.8348 4.09043 36.4789 4.09214C36.1134 4.09385 35.8779 4.10098 35.773 4.10098C35.7275 4.10098 35.7103 4.07356 35.7197 4.0158V1.62253C35.7197 1.56497 35.7369 1.53735 35.773 1.53735C35.8655 1.53735 36.0699 1.53564 36.3835 1.53735C36.7005 1.53948 37.3837 1.55238 37.4888 1.56191C37.7261 1.58378 37.8922 1.62313 37.9835 1.67587C38.0687 1.7254 38.1218 1.78834 38.1399 1.8577C38.1731 1.98428 38.1932 2.08689 38.1932 2.1644C38.1932 2.24122 38.2175 2.2801 38.2635 2.27849C38.3022 2.27721 38.3257 2.23982 38.3309 2.18194C38.3489 1.98371 38.3539 1.79006 38.3779 1.61246C38.4085 1.38613 38.451 1.2529 38.4533 1.20875C38.4554 1.16358 38.4406 1.1378 38.4171 1.13241C38.3763 1.13784 38.3341 1.1512 38.2935 1.17256C38.2137 1.19012 38.0796 1.21306 37.8973 1.21613C37.1323 1.22839 35.9681 1.23253 35.3457 1.22484C35.1869 1.2227 34.8413 1.20442 34.3134 1.19874C34.2147 1.19874 34.166 1.22018 34.166 1.26374C34.166 1.29949 34.1913 1.31706 34.2413 1.31706C34.3512 1.31706 34.4542 1.32544 34.5486 1.34287C34.7018 1.36466 34.807 1.41625 34.8601 1.49858C34.9072 1.57207 34.9337 1.6859 34.9397 1.83747C34.9525 1.92243 34.9586 2.54694 34.9586 3.71148L34.9586 5.22824Z" fill="#525252"/>
</g>
<defs>
<clipPath id="clip0_7_11632">
<rect width="70" height="8" fill="white"/>
</clipPath>
</defs>
</svg>
