<svg width="67" height="50" viewBox="0 0 67 50" fill="none" xmlns="http://www.w3.org/2000/svg">
<path d="M29.522 23.5784C29.5779 23.7229 29.6895 23.834 29.8347 23.834C29.9799 23.834 30.0915 23.7451 30.1139 23.5784L30.8174 21.5229L31.5209 23.5784C31.5767 23.7229 31.666 23.834 31.8 23.834H31.8335C31.9787 23.834 32.0904 23.7451 32.1127 23.5784L33.0507 21.0118C33.0507 20.9784 33.0842 20.9229 33.0842 20.8673C33.0842 20.7229 32.9725 20.6118 32.805 20.6118C32.6599 20.6118 32.5817 20.7006 32.5482 20.8118L31.8112 22.9562L31.1077 20.8451C31.0519 20.7006 30.9625 20.6229 30.8285 20.6229H30.795C30.6499 20.6229 30.5717 20.7118 30.5159 20.8451L29.8124 22.9562L29.1089 20.8451C29.053 20.7006 28.9637 20.6229 28.8297 20.6229C28.6845 20.6229 28.5505 20.734 28.5505 20.8784C28.5505 20.934 28.584 20.9673 28.584 21.0229L29.522 23.5784ZM34.5359 23.834C35.0495 23.834 35.3845 23.6118 35.5855 23.4118V23.5562C35.5855 23.7006 35.6972 23.8118 35.8647 23.8118C36.0099 23.8118 36.1215 23.7006 36.1215 23.534V21.9006C36.1215 21.5006 36.0099 21.2006 35.7865 20.9673C35.5632 20.7451 35.217 20.634 34.7704 20.634C34.4019 20.634 34.0892 20.6895 33.7542 20.834C33.6649 20.8673 33.5867 20.9451 33.5867 21.0562C33.5867 21.2006 33.6984 21.3118 33.8435 21.3118C33.877 21.3118 33.8994 21.3118 33.9552 21.2784C34.212 21.1673 34.4689 21.1118 34.7145 21.1118C35.1165 21.1118 35.5632 21.2562 35.5632 21.8673V21.9006C35.3399 21.8451 35.083 21.7895 34.681 21.7895C33.8547 21.7895 33.3187 22.1895 33.3187 22.8006C33.3522 23.4895 33.944 23.834 34.5359 23.834ZM33.9217 22.8118C33.9217 22.4451 34.2344 22.2451 34.748 22.2451C35.0272 22.2451 35.3175 22.2784 35.5967 22.3562V22.6118C35.5967 23.034 35.1724 23.3673 34.6364 23.3673C34.2902 23.3784 33.9217 23.2118 33.9217 22.8118ZM37.1489 23.8006C37.294 23.8006 37.428 23.6895 37.428 23.5229V22.5118C37.428 21.7562 37.7965 21.2673 38.4442 21.1895C38.5894 21.1562 38.701 21.0451 38.701 20.9118C38.701 20.7451 38.5894 20.634 38.4219 20.634C38.0534 20.634 37.6625 20.8895 37.428 21.2784V20.9118C37.428 20.7451 37.3164 20.634 37.1489 20.634C37.0037 20.634 36.8697 20.7451 36.8697 20.9118V23.534C36.8585 23.6895 37.0037 23.8006 37.1489 23.8006ZM41.649 23.1784C41.649 23.034 41.5374 22.9229 41.3922 22.9229C41.3029 22.9229 41.247 22.9562 41.2247 22.9784C40.9679 23.2006 40.711 23.3118 40.376 23.3118C39.84 23.3118 39.438 22.9451 39.3599 22.3784H41.4815C41.6267 22.3784 41.7384 22.2673 41.7384 22.1229C41.7384 21.334 41.2247 20.5451 40.2979 20.5451C39.4492 20.5451 38.8015 21.2451 38.8015 22.1784C38.8015 23.1118 39.4827 23.8118 40.3649 23.8118C40.845 23.8118 41.2135 23.6673 41.5597 23.334C41.6267 23.3229 41.649 23.2673 41.649 23.1784ZM40.3202 21.0673C40.912 21.0673 41.1689 21.5451 41.2247 22.0006H39.3822C39.438 21.4562 39.84 21.0673 40.3202 21.0673ZM44.5412 23.5229C44.5412 23.6895 44.6529 23.8006 44.8204 23.8006C44.9655 23.8006 45.0995 23.6895 45.0995 23.5229V21.8562C45.0995 21.1006 44.6194 20.5895 43.8824 20.5895C43.458 20.5895 43.1454 20.7562 42.8885 21.0673V19.6562C42.8885 19.5118 42.7769 19.3784 42.6094 19.3784C42.4642 19.3784 42.3302 19.4895 42.3302 19.6562V23.5229C42.3302 23.6895 42.4419 23.8006 42.6094 23.8006C42.7769 23.8006 42.8885 23.6895 42.8885 23.5229V22.0006C42.8885 21.4673 43.2235 21.1006 43.7372 21.1006C44.2174 21.1006 44.53 21.4118 44.53 21.9784V23.5229H44.5412ZM48.9297 22.2229C48.9297 21.2895 48.2262 20.5895 47.2882 20.5895C46.3837 20.5895 45.6467 21.2895 45.6467 22.2229C45.6467 23.1229 46.3502 23.834 47.2659 23.834C48.1927 23.8562 48.9297 23.1229 48.9297 22.2229ZM48.3602 22.2229C48.3602 22.8451 47.9024 23.3229 47.2882 23.3229C46.6964 23.3229 46.2162 22.8451 46.2162 22.2006C46.2162 21.5562 46.674 21.0784 47.2659 21.0784C47.88 21.1006 48.3602 21.5784 48.3602 22.2229ZM51.6767 23.3784V23.5451C51.6767 23.7118 51.7884 23.8229 51.9559 23.8229C52.101 23.8229 52.235 23.7118 52.235 23.5451V20.9229C52.235 20.7562 52.1234 20.6451 51.9559 20.6451C51.8107 20.6451 51.6767 20.7562 51.6767 20.9229V22.4451C51.6767 22.9784 51.3417 23.3451 50.828 23.3451C50.3479 23.3451 50.0352 23.034 50.0352 22.5006V20.9451C50.0352 20.8006 49.9235 20.6673 49.756 20.6673C49.5885 20.6673 49.4769 20.7784 49.4769 20.9451V22.6118C49.4769 23.3673 49.957 23.8784 50.694 23.8784C51.0849 23.834 51.4199 23.6895 51.6767 23.3784ZM52.8715 23.434C53.2065 23.6895 53.6644 23.834 54.0664 23.834C54.7475 23.834 55.1942 23.434 55.1942 22.8784C55.1942 22.2562 54.6024 22.0895 54.178 21.9784C53.8095 21.8673 53.441 21.7562 53.441 21.5229C53.441 21.3006 53.6644 21.1229 53.977 21.1229C54.2004 21.1229 54.4907 21.2118 54.7364 21.3451C54.7699 21.3451 54.7922 21.3784 54.848 21.3784C54.9932 21.3784 55.1049 21.2673 55.1049 21.1229C55.1049 21.034 55.049 20.9562 54.9597 20.9006C54.647 20.734 54.2785 20.6451 53.9659 20.6451C53.3182 20.6451 52.8939 21.0118 52.8939 21.5784C52.8939 22.2006 53.4857 22.3673 53.9435 22.4784C54.3455 22.5895 54.647 22.7006 54.647 22.9562C54.647 23.2118 54.4237 23.3784 54.0775 23.3784C53.7649 23.3784 53.4522 23.2673 53.1395 23.0673C53.106 23.034 53.0502 23.0118 52.9944 23.0118C52.8492 23.0118 52.7375 23.1229 52.7375 23.2673C52.7487 23.3451 52.8045 23.4118 52.8715 23.434ZM58.5889 22.1673C58.5889 21.3784 58.0752 20.5895 57.1149 20.5895C56.2662 20.5895 55.6185 21.2895 55.6185 22.2229C55.6185 23.1562 56.2997 23.8562 57.1819 23.8562C57.662 23.8562 58.0305 23.7118 58.3767 23.3784C58.4325 23.3229 58.466 23.2673 58.466 23.1784C58.466 23.034 58.3544 22.9229 58.2092 22.9229C58.1199 22.9229 58.064 22.9562 58.0417 22.9784C57.7849 23.2006 57.528 23.3118 57.193 23.3118C56.657 23.3118 56.255 22.9451 56.1769 22.3784H58.2985C58.4772 22.4451 58.5889 22.3118 58.5889 22.1673ZM56.1769 22.0006C56.2662 21.4673 56.6347 21.0673 57.1149 21.0673C57.7067 21.0673 57.9635 21.5451 58.0194 22.0006H56.1769ZM29.9464 27.5229C29.5444 27.4118 29.2094 27.3006 29.2094 27.0451C29.2094 26.8229 29.4327 26.6451 29.7454 26.6451C29.9687 26.6451 30.259 26.734 30.5047 26.8673C30.5382 26.8673 30.5605 26.9006 30.6164 26.9006C30.7615 26.9006 30.8732 26.7895 30.8732 26.6451C30.8732 26.5562 30.8174 26.4784 30.728 26.4229C30.4154 26.2562 30.0469 26.1673 29.7342 26.1673C29.0865 26.1673 28.6622 26.534 28.6622 27.0673C28.6622 27.6895 29.254 27.8562 29.7119 27.9673C30.1139 28.0784 30.4154 28.1895 30.4154 28.4451C30.4154 28.7006 30.192 28.8673 29.8459 28.8673C29.5332 28.8673 29.2205 28.7562 28.9079 28.5562C28.8744 28.5229 28.8185 28.5006 28.7627 28.5006C28.6175 28.5006 28.5059 28.6118 28.5059 28.7562C28.5059 28.8673 28.5617 28.9229 28.6175 28.9562C28.9525 29.2118 29.4104 29.3562 29.8124 29.3562C30.4935 29.3562 30.9402 28.9562 30.9402 28.4006C30.9737 27.834 30.3484 27.634 29.9464 27.5229ZM32.9502 26.734C33.0954 26.734 33.207 26.6229 33.207 26.4784C33.207 26.334 33.0954 26.2229 32.9502 26.2229H32.2132V25.5784C32.2132 25.434 32.068 25.3006 31.934 25.3006C31.8 25.3006 31.6549 25.4118 31.6549 25.5784V26.2229H31.4539C31.3087 26.2229 31.197 26.334 31.197 26.4784C31.197 26.6229 31.3087 26.734 31.4539 26.734H31.6549V28.5118C31.6549 29.1006 31.9675 29.4118 32.5594 29.4118C32.7269 29.4118 32.872 29.3784 33.0172 29.3229C33.1289 29.2895 33.1847 29.2118 33.1847 29.1006C33.1847 28.9562 33.073 28.8451 32.9279 28.8451C32.8944 28.8451 32.8944 28.8451 32.872 28.8451C32.8162 28.8451 32.7604 28.8784 32.6487 28.8784C32.336 28.8784 32.1909 28.734 32.1909 28.4229V26.7006L32.9502 26.734ZM34.9602 26.2006C34.5917 26.2006 34.279 26.2562 33.944 26.4006C33.8547 26.434 33.7989 26.5118 33.7989 26.6229C33.7989 26.7673 33.9105 26.8784 34.0557 26.8784C34.0892 26.8784 34.1115 26.8784 34.1674 26.8451C34.4242 26.734 34.681 26.6784 34.9267 26.6784C35.3287 26.6784 35.7754 26.8229 35.7754 27.434V27.4673C35.552 27.4118 35.2952 27.3562 34.8932 27.3562C34.0669 27.3562 33.5309 27.7562 33.5309 28.3673C33.5309 29.0118 34.1227 29.3562 34.7257 29.3562C35.2394 29.3562 35.5744 29.134 35.7754 28.934V29.0784C35.7754 29.2229 35.887 29.334 36.0322 29.334C36.1774 29.334 36.289 29.2229 36.289 29.0562V27.3895C36.289 26.9895 36.1774 26.6895 35.9764 26.4562C35.753 26.3118 35.418 26.2006 34.9602 26.2006ZM35.7865 28.1673C35.7865 28.5895 35.3622 28.9229 34.8262 28.9229C34.4912 28.9229 34.1227 28.7562 34.1227 28.3895C34.1227 28.0229 34.4354 27.8229 34.949 27.8229C35.2282 27.8229 35.5185 27.8562 35.7977 27.934V28.1673H35.7865ZM38.4442 26.734C38.5894 26.734 38.701 26.6229 38.701 26.4784C38.701 26.334 38.5894 26.2229 38.4442 26.2229H37.7072V25.5784C37.7072 25.434 37.562 25.3006 37.428 25.3006C37.2829 25.3006 37.1489 25.4118 37.1489 25.5784V26.2229H36.9479C36.8027 26.2229 36.691 26.334 36.691 26.4784C36.691 26.6229 36.8027 26.734 36.9479 26.734H37.1489V28.5118C37.1489 29.1006 37.4615 29.4118 38.0534 29.4118C38.2209 29.4118 38.366 29.3784 38.5112 29.3229C38.6229 29.2895 38.6787 29.2118 38.6787 29.1006C38.6787 28.9562 38.567 28.8451 38.4219 28.8451C38.3884 28.8451 38.3884 28.8451 38.366 28.8451C38.3102 28.8451 38.2544 28.8784 38.1427 28.8784C37.83 28.8784 37.6849 28.734 37.6849 28.4229V26.7006L38.4442 26.734ZM39.5832 26.2006C39.438 26.2006 39.304 26.3118 39.304 26.4784V29.1006C39.304 29.2673 39.4157 29.3784 39.5832 29.3784C39.7507 29.3784 39.8624 29.2673 39.8624 29.1006V26.4784C39.8624 26.3118 39.7507 26.2006 39.5832 26.2006ZM39.5832 25.0451C39.4157 25.0451 39.2705 25.1562 39.2705 25.3229V25.4118C39.2705 25.5784 39.4157 25.6895 39.5832 25.6895C39.7507 25.6895 39.8959 25.5784 39.8959 25.4118V25.3229C39.8959 25.1562 39.7842 25.0451 39.5832 25.0451ZM42.1292 26.1673C41.2247 26.1673 40.4877 26.8673 40.4877 27.8006C40.4877 28.7006 41.1912 29.4118 42.1069 29.4118C43.0225 29.4118 43.7484 28.7118 43.7484 27.7784C43.7707 26.8784 43.0672 26.1673 42.1292 26.1673ZM43.2124 27.8006C43.2124 28.4229 42.7545 28.9006 42.1404 28.9006C41.5485 28.9006 41.0684 28.4229 41.0684 27.7784C41.0684 27.134 41.5262 26.6562 42.118 26.6562C42.721 26.6784 43.2124 27.1562 43.2124 27.8006ZM45.9035 26.1673C45.4792 26.1673 45.1665 26.334 44.9097 26.6451V26.4784C44.9097 26.3118 44.798 26.2006 44.6305 26.2006C44.4854 26.2006 44.3514 26.3118 44.3514 26.4784V29.1006C44.3514 29.2673 44.463 29.3784 44.6305 29.3784C44.798 29.3784 44.9097 29.2673 44.9097 29.1006V27.5784C44.9097 27.0451 45.2447 26.6784 45.7584 26.6784C46.2385 26.6784 46.5512 26.9895 46.5512 27.5229V29.0784C46.5512 29.2451 46.6629 29.3562 46.8304 29.3562C46.9755 29.3562 47.1095 29.2451 47.1095 29.0784V27.4118C47.1207 26.6451 46.6405 26.1673 45.9035 26.1673ZM49.1865 26.1673C48.3379 26.1673 47.6902 26.8673 47.6902 27.7784C47.6902 28.7118 48.3714 29.4118 49.2535 29.4118C49.7337 29.4118 50.1022 29.2673 50.4484 28.934C50.5042 28.8784 50.5377 28.8229 50.5377 28.734C50.5377 28.5895 50.426 28.4784 50.2809 28.4784C50.1915 28.4784 50.1357 28.5118 50.1134 28.534C49.8565 28.7562 49.5997 28.8673 49.2647 28.8673C48.7287 28.8673 48.3267 28.5006 48.2485 27.934H50.3702C50.5154 27.934 50.627 27.8229 50.627 27.6784C50.627 26.9562 50.1245 26.1673 49.1865 26.1673ZM48.2485 27.5784C48.3379 27.0451 48.7064 26.6451 49.1865 26.6451C49.7784 26.6451 50.0352 27.1229 50.091 27.5784H48.2485ZM52.7487 26.2006C52.3802 26.2006 51.9894 26.4562 51.7549 26.8451V26.4784C51.7549 26.3118 51.6432 26.2006 51.4757 26.2006C51.3305 26.2006 51.1965 26.3118 51.1965 26.4784V29.1006C51.1965 29.2673 51.3082 29.3784 51.4757 29.3784C51.6209 29.3784 51.7549 29.2673 51.7549 29.1006V28.0895C51.7549 27.334 52.1234 26.8451 52.771 26.7673C52.9162 26.734 53.0279 26.6229 53.0279 26.4895C53.039 26.3118 52.9274 26.2006 52.7487 26.2006ZM55.9535 26.2006C55.8642 26.2006 55.7525 26.234 55.6967 26.4006L54.7922 28.6562L53.7984 26.4006C53.7425 26.2562 53.6532 26.2006 53.5192 26.2006C53.3517 26.2006 53.24 26.3118 53.24 26.4784C53.24 26.534 53.24 26.5673 53.2735 26.6229L54.5242 29.2673V29.3006C54.3567 29.6673 54.2115 29.8118 53.9547 29.8118C53.8095 29.8118 53.7314 29.7784 53.642 29.7562C53.6085 29.7562 53.5527 29.7229 53.4969 29.7229C53.3517 29.7229 53.24 29.834 53.24 29.9784C53.24 30.0895 53.2959 30.1784 53.4075 30.234C53.5527 30.2895 53.6867 30.3229 53.9212 30.3229C54.4014 30.3229 54.714 30.0673 54.9932 29.4451L56.188 26.6229C56.188 26.5895 56.2215 26.534 56.2215 26.5118C56.2327 26.3118 56.0987 26.2006 55.9535 26.2006Z" fill="black"/>
<path d="M17.1503 16.2783C12.2817 16.2783 8.33984 20.2005 8.33984 25.045C8.33984 29.8894 12.2817 33.8117 17.1503 33.8117C22.019 33.8117 25.9608 29.8894 25.9608 25.045C25.9608 20.1894 22.019 16.2783 17.1503 16.2783Z" fill="white" stroke="black" stroke-width="0.333333" stroke-miterlimit="10"/>
<path d="M15.0845 29.4895C15.0845 29.2339 14.8835 29.0117 14.6267 29.0117C14.3698 29.0117 14.1465 29.2117 14.1465 29.4895C14.1465 29.7451 14.3475 29.9451 14.6267 29.9451C14.85 29.9451 15.0845 29.7451 15.0845 29.4895Z" fill="#777777"/>
<path d="M16.7817 29.4895C16.7817 29.2339 16.5807 29.0117 16.3016 29.0117C16.0447 29.0117 15.8438 29.2117 15.8438 29.4895C15.8438 29.7451 16.0447 29.9451 16.3016 29.9451C16.5584 29.9451 16.7817 29.7451 16.7817 29.4895Z" fill="#999999"/>
<path d="M18.4799 29.4895C18.4799 29.2339 18.2789 29.0117 17.9997 29.0117C17.7205 29.0117 17.5195 29.2117 17.5195 29.4895C17.5195 29.7451 17.7205 29.9451 17.9997 29.9451C18.2789 29.9451 18.4799 29.7451 18.4799 29.4895Z" fill="#BBBBBA"/>
<path d="M20.1548 29.4895C20.1548 29.2339 19.9538 29.0117 19.6746 29.0117C19.4178 29.0117 19.2168 29.2117 19.2168 29.4895C19.2168 29.7451 19.4178 29.9451 19.6746 29.9451C19.9538 29.9451 20.1548 29.7451 20.1548 29.4895Z" fill="#E5E4E4"/>
<path d="M18.6241 23.1564L17.2952 26.8786C17.1277 27.3341 16.8374 27.523 16.4689 27.523H16.4131C16.0446 27.523 15.7654 27.323 15.6202 26.9008L14.7939 24.2786L13.9452 26.9008C13.8001 27.323 13.4874 27.523 13.1524 27.523H13.0966C12.7281 27.523 12.4489 27.323 12.2702 26.8786L10.9972 23.2119C10.9637 23.123 10.9414 22.9897 10.9414 22.8453C10.9414 22.5119 11.2206 22.1675 11.6449 22.1675C12.0134 22.1675 12.2702 22.3897 12.3484 22.7341L13.1412 25.3786L13.9676 22.7564C14.0792 22.423 14.3361 22.1675 14.7269 22.1675H14.8162C15.1847 22.1675 15.4639 22.423 15.5756 22.7564L16.4019 25.4008L17.2282 22.7564C17.3176 22.4453 17.5409 22.1897 17.9317 22.1897C18.3226 22.1897 18.6129 22.5008 18.6129 22.8675C18.6799 22.9564 18.6464 23.1008 18.6241 23.1564Z" fill="#333333"/>
<path d="M23.0346 25.8561C23.0346 27.0117 22.1525 27.545 21.0246 27.545C20.377 27.545 19.6958 27.345 19.037 26.9561C18.8695 26.8672 18.7578 26.6784 18.7578 26.445C18.7578 26.1117 19.0146 25.8561 19.3496 25.8561C19.4613 25.8561 19.573 25.8895 19.6288 25.945C20.1425 26.2561 20.6226 26.4228 21.047 26.4228C21.4713 26.4228 21.6723 26.2784 21.6723 26.0228V25.9895C21.6723 25.6784 21.1586 25.5672 20.6003 25.4006C19.8633 25.2006 19.037 24.8339 19.037 23.845V23.8117C19.037 22.745 19.8856 22.145 20.9353 22.145C21.4713 22.145 22.0408 22.2895 22.5545 22.545C22.7778 22.6561 22.8895 22.8561 22.8895 23.1117C22.8895 23.445 22.6326 23.7006 22.2976 23.7006C22.186 23.7006 22.1301 23.6672 22.0185 23.645C21.5941 23.445 21.1921 23.3117 20.8906 23.3117C20.5221 23.3117 20.3546 23.4561 20.3546 23.6784V23.7117C20.3546 23.9895 20.8683 24.1339 21.4266 24.3339C22.186 24.5339 23.0346 24.8672 23.0346 25.8561Z" fill="#333333"/>
</svg>
