<svg width="70" height="21" viewBox="0 0 70 21" fill="none" xmlns="http://www.w3.org/2000/svg">
<g clip-path="url(#clip0_7_11656)">
<path d="M66.1341 4.11701L63.7979 9.84907L62.2181 5.8508C61.6089 4.18952 59.7379 4.36422 59.7379 4.36422H54.3659C51.9995 4.36422 49.9813 5.83761 49.2081 7.90432C49.2081 7.88125 49.2115 7.85488 49.2115 7.83181C49.2115 3.84342 45.9314 0.609863 41.8814 0.609863H36.2015V3.93571H37.6407V9.35464C37.4232 6.56278 35.0501 4.36422 32.1583 4.36422C29.3033 4.36422 26.957 6.51004 26.6859 9.25246C26.4181 6.51004 24.0718 4.36422 21.2135 4.36422C18.6597 4.36422 16.5142 6.07824 15.895 8.40205C15.8984 8.32623 15.9017 8.25042 15.9017 8.17131V5.27397H9.07376V8.51412H12.3639C12.1865 10.5808 10.426 12.2025 8.28051 12.2025C6.01791 12.2025 4.18373 10.3962 4.18373 8.16802C4.18373 5.9398 6.01791 4.13349 8.28051 4.13349H15.885V0.636233H8.25038C4.02307 0.636233 0.595703 4.00823 0.595703 8.17131C0.595703 12.3344 4.02307 15.7097 8.25038 15.7097C11.902 15.7097 14.9545 13.1881 15.7176 9.81611C15.7377 12.7893 18.1911 15.1955 21.2135 15.1955C24.0685 15.1955 26.4148 13.053 26.6859 10.3072C26.9536 13.0497 29.2999 15.1955 32.1583 15.1955C35.0501 15.1955 37.4198 12.9969 37.6407 10.2051V15.0538H41.8814C45.1649 15.0538 47.9429 12.9277 48.8768 9.9974C48.9906 12.8816 51.4071 15.0768 54.3693 15.1955C55.2529 15.2284 56.4009 14.8065 56.4009 14.8065C56.759 14.6648 57.1172 14.7373 57.1172 14.7373H58.8409V7.19564C59.4534 7.19564 59.4869 7.51537 59.4869 7.51537L62.2181 13.9561L61.9302 14.8065C61.2474 16.6096 59.7379 16.3294 59.7379 16.3294H58.7673V18.6993H61.8934C64.0489 18.5939 64.5509 16.5403 64.5509 16.5403L69.4042 4.1203H66.1341V4.11701ZM21.2135 12.397C19.7441 12.397 18.5526 11.2269 18.5526 9.77985C18.5526 8.33283 19.7441 7.15938 21.2135 7.15938C22.6828 7.15938 23.8744 8.33283 23.8744 9.77985C23.8744 11.2269 22.6828 12.397 21.2135 12.397ZM32.1583 12.397C30.6889 12.397 29.4974 11.2269 29.4974 9.77985C29.4974 8.33283 30.6889 7.15938 32.1583 7.15938C33.6276 7.15938 34.8192 8.33283 34.8192 9.77985C34.8192 11.2269 33.6276 12.397 32.1583 12.397ZM41.8413 11.7246H40.8706V3.93901H41.8413C44.0235 3.93901 45.7941 5.68269 45.7941 7.83181C45.7975 9.98422 44.0235 11.7246 41.8413 11.7246ZM55.688 12.041C55.293 12.2652 54.8579 12.397 54.3659 12.397C52.8999 12.397 51.7084 11.2236 51.7084 9.77985C51.7084 8.33283 52.8999 7.15938 54.3659 7.15938C54.8378 7.15938 55.3064 7.27805 55.688 7.4956V12.041Z" fill="#DF610F"/>
<path d="M42.2433 16.0195H41.584V16.7711H42.2433V16.0195Z" fill="#DF610F"/>
<path d="M41.4019 16.4282H38.5938C38.5469 17.427 38.4532 17.7302 37.8809 17.8555V18.7421C38.3494 18.6531 38.7544 18.4982 39.0122 18.3169C39.2766 18.1225 39.4071 17.8785 39.5243 17.3413L39.5477 17.2292H41.4455V18.3697C41.4388 19.3289 41.0907 19.5794 39.7552 19.5893H38.2691V20.3738H39.2766C40.766 20.3738 41.2413 20.3045 41.8036 20.0145C42.4128 19.6618 42.5701 19.2926 42.5768 18.2246V16.9095H41.4019V16.4282Z" fill="#DF610F"/>
<path d="M43.0888 16.0195H42.4395V16.7711H43.0888V16.0195Z" fill="#DF610F"/>
<path d="M52.6878 16.0195H52.0352V16.7711H52.6878V16.0195Z" fill="#DF610F"/>
<path d="M51.8424 16.0195H51.1797V16.7711H51.8424V16.0195Z" fill="#DF610F"/>
<path d="M45.8379 19.0225C45.8412 19.2136 45.791 19.3422 45.6739 19.4411C45.5032 19.5861 45.1952 19.6487 44.6497 19.6487H43.3711V20.3871H44.4723C45.55 20.3838 45.9784 20.3146 46.3098 20.097C46.6746 19.8465 46.8018 19.5004 46.7951 18.772V17.5952H45.8379V19.0225Z" fill="#DF610F"/>
<path d="M47.5977 18.4092H49.5992L49.5958 18.5444C49.5891 18.8872 49.5825 18.9861 49.5356 19.0949C49.4385 19.352 49.1038 19.5102 48.6386 19.5168H47.919V20.3639H48.9499C49.6862 20.354 50.2184 20.1397 50.4928 19.7409C50.687 19.4607 50.7439 19.2234 50.7707 18.5411L50.7773 18.4125H52.4375V17.6577H47.5977V18.4092Z" fill="#DF610F"/>
<path d="M47.916 16.356V17.1273H52.0429V16.9097H51.012V16.356H47.916Z" fill="#DF610F"/>
<path d="M56.086 17.0512L53.0938 18.0763V18.9202L55.0919 18.2543V20.3672H56.2031V17.8753L56.3036 17.839C57.7495 17.3215 57.8934 17.2094 57.947 16.2041H56.8157C56.7655 16.7447 56.6483 16.8633 56.086 17.0512Z" fill="#DF610F"/>
<path d="M44.7599 18.8707H45.5867L45.5699 18.7916C45.4795 18.3664 45.3992 18.0631 45.2888 17.7039L45.2754 17.6577H44.4453L44.4721 17.7401C44.5792 18.0961 44.6763 18.4686 44.7499 18.818L44.7599 18.8707Z" fill="#DF610F"/>
<path d="M44.1945 17.6577H43.3477L43.3711 17.7401C43.4882 18.1423 43.5485 18.3895 43.6422 18.818L43.6522 18.8707H44.5124L44.4923 18.7916C44.3518 18.195 44.2882 17.9511 44.2078 17.7039L44.1945 17.6577Z" fill="#DF610F"/>
</g>
<defs>
<clipPath id="clip0_7_11656">
<rect width="70" height="21" fill="white"/>
</clipPath>
</defs>
</svg>
