<svg width="70" height="48" viewBox="0 0 70 48" fill="none" xmlns="http://www.w3.org/2000/svg">
<path fill-rule="evenodd" clip-rule="evenodd" d="M16.6984 33.1225C16.8673 32.9482 17.0274 32.7674 17.1764 32.5789C17.4226 32.2688 17.639 31.9422 17.8245 31.6003C18.0001 31.2003 18.0133 30.8923 17.9305 30.7247L17.9261 30.7159C17.9085 30.683 17.8875 30.66 17.8665 30.6491C17.8477 30.6392 17.8212 30.6381 17.7903 30.6458C17.6402 30.6841 17.4502 30.8704 17.2637 31.2518C17.0307 31.7811 16.8596 32.2732 16.7602 32.7565C16.7348 32.8781 16.7138 32.9997 16.6984 33.1225ZM20.9955 34.0518L21.0816 34.4266L21.0927 34.4748C21.3577 34.3093 21.5763 34.1471 21.7408 33.9828C21.945 33.7789 22.0643 33.5762 22.0831 33.3636C22.0941 33.2365 22.2078 33.1422 22.337 33.1543C22.4651 33.1652 22.56 33.2781 22.5479 33.4063C22.517 33.7351 22.3525 34.031 22.072 34.3104C21.8523 34.5285 21.5586 34.74 21.202 34.9526C21.5056 36.3214 21.6381 37.4502 20.5881 37.9586C20.5804 37.963 20.5715 37.9663 20.5638 37.9685C20.1354 38.1493 19.6386 38.1055 19.2466 37.9159V37.917C19.0446 37.8195 18.8668 37.6803 18.7365 37.5115C18.6007 37.3362 18.5168 37.128 18.508 36.8989C18.4958 36.5712 18.6394 36.2096 19.0103 35.8523L19.0269 35.8381C19.5889 35.391 20.0592 35.1049 20.4137 34.888C20.5086 34.8299 20.5958 34.7773 20.672 34.7291L20.6488 34.6304C20.6091 34.6677 20.5671 34.7028 20.5219 34.7356C20.5141 34.7411 20.5064 34.7455 20.4987 34.751C20.0338 35.0063 19.6507 35.0512 19.3626 34.9614L19.3504 34.9581C19.1682 34.8989 19.0258 34.7871 18.9264 34.6403C18.8315 34.5011 18.7774 34.3312 18.7663 34.1471L18.7652 34.1285L18.7321 34.1384C18.5731 34.1866 18.4042 34.2151 18.2452 34.2129C18.0807 34.6293 17.8488 34.8923 17.6037 35.0315V35.0304C17.4315 35.1291 17.2526 35.1674 17.0837 35.1565C16.9114 35.1455 16.748 35.083 16.6111 34.9789C16.4069 34.8244 16.2589 34.58 16.2236 34.2797V34.2765C16.164 33.7175 16.1938 33.1926 16.302 32.6644C16.408 32.1428 16.5902 31.6211 16.8342 31.0644L16.8408 31.0502C17.0958 30.5296 17.4039 30.2622 17.6744 30.1932H17.6755C17.819 30.157 17.957 30.1723 18.0774 30.2326C18.1878 30.2885 18.2794 30.3806 18.3446 30.5044L18.3523 30.5197C18.4881 30.7959 18.4903 31.2496 18.2507 31.7899L18.243 31.8063C18.0409 32.1811 17.808 32.534 17.5452 32.8649C17.2835 33.1937 16.9898 33.506 16.6619 33.8008C16.6641 33.94 16.673 34.0814 16.6884 34.2249C16.7083 34.3948 16.7867 34.5296 16.8927 34.6096C16.9567 34.6578 17.0329 34.6874 17.1124 34.6929C17.1952 34.6984 17.2846 34.6786 17.3719 34.6282V34.6271C17.5231 34.5406 17.6711 34.3707 17.7892 34.0945C17.7064 34.0441 17.6346 33.9751 17.5794 33.8852C17.5507 33.8392 17.5275 33.7877 17.5099 33.7307C17.4767 33.6233 17.4613 33.5148 17.4767 33.4096C17.4955 33.2858 17.5518 33.1729 17.6655 33.0786C17.7461 33.0118 17.84 32.9734 17.9338 32.968C18.0343 32.9625 18.1304 32.9932 18.211 33.0644C18.2761 33.1214 18.3291 33.2036 18.3589 33.3099C18.3887 33.4173 18.3976 33.5608 18.3722 33.7406C18.4461 33.7318 18.5223 33.7154 18.5963 33.6934C18.6902 33.6649 18.7796 33.6277 18.8558 33.586C18.9353 33.3723 19.0678 33.1608 19.2555 32.9712C19.346 32.8803 19.4939 32.8792 19.5856 32.9691C19.6772 33.0589 19.6783 33.2058 19.5878 33.2967C19.3305 33.5554 19.2157 33.8644 19.2312 34.1176C19.2367 34.2184 19.2643 34.3082 19.3118 34.3773C19.3537 34.4397 19.4155 34.488 19.495 34.5132L19.5039 34.5165C19.6761 34.568 19.9256 34.5296 20.2558 34.351C20.4103 34.237 20.5042 34.0704 20.5561 33.8808L20.5616 33.8633C20.629 33.6025 20.6223 33.2978 20.5826 33.0096C20.566 32.8825 20.6555 32.7663 20.7824 32.7488C20.9105 32.7323 21.0275 32.8211 21.0452 32.9471C21.0916 33.2869 21.0982 33.6529 21.0121 33.9806L21.0077 34.0025L20.9955 34.0518ZM20.3838 37.5411C21.0905 37.1981 21.0143 36.3115 20.7802 35.2102L20.6577 35.2847C20.3154 35.4929 19.8638 35.768 19.3272 36.1943C19.0678 36.4463 18.9673 36.6819 18.9739 36.8836C18.9783 37.0107 19.028 37.1291 19.1064 37.231C19.1903 37.3406 19.3107 37.4326 19.4498 37.4995V37.5006C19.7291 37.6365 20.078 37.6682 20.3772 37.5444L20.3838 37.5411Z" fill="#000200"/>
<path fill-rule="evenodd" clip-rule="evenodd" d="M29.4559 30.0375C29.4648 30.3575 29.2108 30.6238 28.8884 30.6325C28.566 30.6413 28.2977 30.3893 28.2889 30.0693L28.2878 30.0506C28.2845 29.9619 28.2414 29.906 28.1862 29.8731C28.0824 29.8106 27.9455 29.7887 27.834 29.7887L27.8031 29.7898C27.7744 29.7909 27.7468 29.7887 27.7181 29.7854V29.7876C27.3979 29.7492 26.9949 29.8292 26.6129 29.9619C26.1414 30.1262 25.7285 30.3575 25.5386 30.546C25.5264 30.5591 25.5132 30.5701 25.4988 30.5821C25.4668 30.6084 25.4425 30.6391 25.4271 30.6698C25.4149 30.695 25.4094 30.7224 25.4116 30.7476C25.4149 30.775 25.4315 30.809 25.4635 30.8473C25.5176 30.912 25.6059 30.9777 25.734 31.0391L28.1586 31.9366C28.1928 31.9498 28.226 31.9651 28.2569 31.9838C28.6102 32.1909 28.863 32.4386 29.0132 32.7114C29.1324 32.9273 29.1887 33.1564 29.1821 33.3909C29.1755 33.6199 29.1081 33.8446 28.9823 34.0594C28.7979 34.3717 28.4832 34.6621 28.0438 34.9032C27.5536 35.1892 27.0865 35.3525 26.604 35.392C26.1226 35.4303 25.6402 35.3416 25.1179 35.1257C24.7646 34.9964 24.4687 34.7892 24.2722 34.5482C24.026 34.2457 23.9189 33.8873 24.0072 33.5257C24.0834 33.2145 24.398 33.0238 24.7116 33.0983C25.0252 33.1739 25.2173 33.4862 25.1422 33.7975C25.1389 33.8095 25.1588 33.7931 25.1775 33.8172C25.2493 33.9049 25.3719 33.9849 25.5264 34.0408L25.5562 34.0517C25.904 34.1975 26.2143 34.2577 26.5135 34.2336C26.8127 34.2095 27.1185 34.0977 27.4564 33.9005L27.4719 33.8917C27.728 33.7514 27.8969 33.609 27.9764 33.4731C28.0018 33.4292 28.0162 33.3909 28.0162 33.3591C28.0173 33.3339 28.0085 33.3032 27.9897 33.2703C27.9422 33.1838 27.8461 33.0928 27.7015 33.004L25.3255 32.124C25.3001 32.1164 25.2747 32.1065 25.2493 32.0945C24.9512 31.9542 24.7282 31.781 24.5692 31.5925C24.3815 31.369 24.281 31.1246 24.2523 30.8802C24.2236 30.6325 24.27 30.3914 24.3726 30.1756C24.4588 29.9947 24.5857 29.8325 24.7403 29.7021C25.0473 29.4106 25.6181 29.0819 26.2297 28.8682C26.7531 28.6862 27.3272 28.5777 27.8274 28.6314C28.1144 28.6303 28.4799 28.6961 28.7857 28.8791C29.149 29.0961 29.4316 29.4523 29.4548 30.0057V30.0123L29.4559 30.0375Z" fill="#000200"/>
<path fill-rule="evenodd" clip-rule="evenodd" d="M46.8869 32.2357C46.6605 32.4922 46.2675 32.5185 46.008 32.2938C45.8391 32.147 45.7684 31.9278 45.8049 31.7229C45.679 31.6264 45.5587 31.5848 45.4571 31.5925C45.403 31.5968 45.35 31.6188 45.3036 31.6571C45.2396 31.7097 45.1844 31.7919 45.1435 31.9004C44.9867 32.3223 45.0695 33.0127 45.5995 33.9004L45.6117 33.9179C45.838 34.2785 46.0654 34.4571 46.3249 34.4231C46.7246 34.3705 47.27 34.0056 48.0164 33.2856C48.5574 32.7311 48.7109 32.2401 48.6214 31.907C48.596 31.8105 48.5464 31.7294 48.4812 31.6703L48.4823 31.6692L48.4812 31.6681C48.4139 31.6078 48.3244 31.5651 48.2195 31.5453C47.8673 31.484 47.3815 31.6725 46.8869 32.2357ZM32.6473 30.9492C32.9178 31.1234 32.994 31.4829 32.8184 31.7503C32.6429 32.0188 32.2807 32.0944 32.0113 31.9201C31.9804 31.9004 31.9418 31.8796 31.8987 31.8577L31.8766 31.8467C31.7221 31.7777 31.5785 31.7744 31.4482 31.8314C31.2517 31.9179 31.0497 32.1218 30.8476 32.4308C30.767 32.5536 30.6875 32.6927 30.6091 32.8483C30.4722 33.1804 30.4457 33.4555 30.4976 33.6429C30.512 33.6933 30.5296 33.7294 30.5495 33.7492C30.5904 33.7492 30.6467 33.7283 30.7173 33.6823L31.0331 33.1508C31.3533 32.4779 31.6359 32.2149 32.114 32.3486C32.4574 32.4451 32.634 32.7552 32.8781 33.2834L33.7514 32.0308C33.9347 31.7678 34.2979 31.7009 34.564 31.8829C34.6689 31.9541 34.7429 32.0538 34.7815 32.1645L34.7826 32.1634L35.1381 33.1508L35.7918 31.9245C35.9419 31.6407 36.2952 31.5322 36.5812 31.6812C36.7082 31.747 36.7998 31.8533 36.8506 31.976L37.5484 33.4204C37.6643 33.1377 37.7471 32.7716 37.7825 32.3223C37.7781 32.2686 37.7758 32.216 37.7736 32.1645C37.735 32.1437 37.6997 32.1196 37.6654 32.09C37.417 31.873 37.321 31.5727 37.3475 31.3053C37.3607 31.1705 37.406 31.0412 37.4788 30.9294C37.5605 30.8034 37.6754 30.7026 37.8189 30.6379C38.0475 30.5349 38.3301 30.5316 38.6282 30.6982L38.6271 30.6993C38.7662 30.7771 38.8711 30.9086 38.9098 31.0697L39.6594 31.0642C39.687 31.0642 39.7146 31.0664 39.7423 31.0697V31.0686C40.8773 31.2275 40.8762 31.8127 40.8751 32.6083C40.8751 32.6785 40.8751 32.753 40.8773 32.8352C40.8773 32.8527 40.8773 32.8703 40.8762 32.8878H40.8773C40.8353 33.5201 40.8419 33.8292 40.8982 33.8609C40.9391 33.884 41.1864 33.7338 41.6104 33.4401C41.7186 33.3645 41.7815 33.2648 41.8158 33.0873C41.8312 33.0083 41.8423 32.9196 41.85 32.8177C41.8389 32.6259 41.8367 32.4209 41.8434 32.2029C41.8445 32.1634 41.85 32.1251 41.8588 32.0878C41.8555 31.9508 41.85 31.8029 41.8434 31.6407C41.8312 31.3207 42.0818 31.0511 42.4042 31.039C42.7266 31.027 42.9982 31.2757 43.0104 31.5957C43.0314 32.1064 43.038 32.5075 43.0192 32.8341C43.0457 33.1935 43.112 33.462 43.208 33.6396C43.2456 33.7097 43.2754 33.7492 43.2964 33.7579L43.3416 33.7415C43.4962 33.6812 43.685 33.5103 43.8937 33.2253C43.908 33.2045 43.9246 33.1859 43.9411 33.1683C43.7711 32.4988 43.8064 31.9212 43.971 31.4763C44.0902 31.1552 44.2768 30.8944 44.5064 30.7048C44.7538 30.5009 45.0497 30.3826 45.3687 30.3585C45.785 30.3278 46.2299 30.4659 46.634 30.8012C47.2612 30.3618 47.9016 30.2335 48.4415 30.3311H48.4437C48.7804 30.3925 49.0796 30.5404 49.3192 30.7574L49.3203 30.7563C49.561 30.9744 49.7377 31.2604 49.826 31.5936C50.0159 32.307 49.7962 33.2429 48.903 34.1557L48.8908 34.1678C47.9402 35.0862 47.164 35.5629 46.485 35.6516C45.6635 35.759 45.0541 35.3766 44.5517 34.5744C44.544 34.5612 44.5363 34.5481 44.5285 34.5349C44.4954 34.4801 44.4645 34.4253 44.4347 34.3716C44.2128 34.5853 43.9875 34.7366 43.7678 34.822C43.4476 34.947 43.1352 34.9481 42.8437 34.8253C42.6306 34.7366 42.4462 34.5853 42.2949 34.376L42.2773 34.3881C41.4613 34.9536 40.8232 35.1519 40.3208 34.8681C39.835 34.5941 39.6363 33.9431 39.7091 32.8231C39.708 32.7519 39.708 32.6796 39.708 32.6094C39.708 32.4078 39.708 32.2566 39.6042 32.2237L38.9451 32.2281L38.9462 32.2423C38.9528 32.284 38.9539 32.3267 38.9517 32.3705C38.9064 33.0051 38.7795 33.5333 38.5951 33.9453C38.3687 34.4527 38.0475 34.8056 37.6732 34.993V34.9919L37.6621 34.9974C37.3717 35.1355 37.0229 35.0127 36.8848 34.7245L36.2853 33.4829L35.5665 34.8308C35.5025 34.9678 35.3855 35.0807 35.2309 35.1355C34.9262 35.2429 34.5916 35.0862 34.4823 34.7837L34.0628 33.6199L33.2711 34.7541C33.2159 34.833 33.1408 34.8999 33.047 34.9448C32.7577 35.0851 32.4088 34.9667 32.2664 34.6796L31.9087 33.9563L31.6624 34.3705C31.626 34.433 31.5774 34.49 31.5167 34.5371C31.1733 34.8034 30.8255 34.9174 30.5075 34.9064C30.2205 34.8977 29.9665 34.7925 29.7623 34.6083C29.5801 34.444 29.4443 34.2204 29.3703 33.9508C29.2533 33.5311 29.2842 32.9831 29.5326 32.3914L29.5481 32.3574C29.6486 32.1546 29.7557 31.9683 29.8661 31.7996C30.1929 31.3009 30.5628 30.9536 30.9702 30.7738C31.4251 30.5733 31.8965 30.5755 32.3779 30.8012C32.3911 30.8067 32.4044 30.8133 32.4176 30.8199C32.4894 30.8516 32.5656 30.8955 32.6473 30.9492Z" fill="#000200"/>
<path fill-rule="evenodd" clip-rule="evenodd" d="M42.4532 29.4302C42.6564 29.4302 42.8408 29.5124 42.9744 29.6439C43.108 29.7765 43.1897 29.9595 43.1897 30.1611C43.1897 30.3628 43.1069 30.5458 42.9744 30.6784C42.8408 30.811 42.6564 30.8921 42.4532 30.8921C42.2501 30.8921 42.0657 30.8099 41.9321 30.6784C41.7985 30.5458 41.7168 30.3628 41.7168 30.1611C41.7168 29.9595 41.7996 29.7765 41.9321 29.6439C42.0646 29.5124 42.249 29.4302 42.4532 29.4302Z" fill="#000200"/>
<path fill-rule="evenodd" clip-rule="evenodd" d="M51.8423 29.3579C52.1846 29.3579 52.4937 29.496 52.7179 29.7185C52.942 29.9409 53.0811 30.2489 53.0811 30.5875C53.0811 30.9272 52.942 31.2341 52.7179 31.4565C52.4937 31.679 52.1846 31.8171 51.8423 31.8171C51.5011 31.8171 51.1909 31.679 50.9668 31.4565C50.7426 31.2341 50.6035 30.9272 50.6035 30.5875C50.6035 30.2489 50.7426 29.9409 50.9668 29.7185C51.1909 29.496 51.5011 29.3579 51.8423 29.3579ZM52.497 29.9376C52.3292 29.7711 52.0974 29.668 51.8423 29.668C51.5862 29.668 51.3554 29.7711 51.1876 29.9376C51.0198 30.1042 50.916 30.3343 50.916 30.5875C50.916 30.8406 51.0198 31.0708 51.1876 31.2374C51.3554 31.4039 51.5873 31.5069 51.8423 31.5069C52.0974 31.5069 52.3292 31.4039 52.497 31.2374C52.6649 31.0708 52.7687 30.8406 52.7687 30.5875C52.7687 30.3332 52.6649 30.1031 52.497 29.9376Z" fill="#000200"/>
<path fill-rule="evenodd" clip-rule="evenodd" d="M51.3038 31.1594V29.898V29.8389H51.3635H51.9266C51.9851 29.8389 52.0381 29.8422 52.0833 29.8476C52.1308 29.8542 52.1717 29.8641 52.2059 29.8772C52.2423 29.8904 52.2743 29.9101 52.303 29.9342C52.3307 29.9583 52.356 29.9868 52.377 30.0208C52.398 30.0548 52.4135 30.0898 52.4234 30.126C52.4333 30.1633 52.4389 30.2016 52.4389 30.2411C52.4389 30.2926 52.43 30.3408 52.4135 30.3857C52.3958 30.4306 52.3704 30.4712 52.3351 30.5074C52.3008 30.5435 52.2567 30.5742 52.2037 30.5961L52.1695 30.6093C52.1937 30.6323 52.2169 30.6575 52.2401 30.6838C52.2644 30.7134 52.2887 30.7463 52.3119 30.7813L52.5327 31.1243L52.5912 31.2153H52.483H52.271H52.2379L52.2202 31.1879L52.0524 30.9249C52.0292 30.8887 52.0072 30.8559 51.9862 30.8263C51.9663 30.7989 51.9486 30.7748 51.9343 30.7561C51.9199 30.7375 51.9067 30.7222 51.8945 30.7101C51.8824 30.6991 51.8725 30.6904 51.8647 30.6849C51.8548 30.6783 51.8448 30.6728 51.8349 30.6685C51.8261 30.6641 51.8161 30.6608 51.8073 30.6586C51.8007 30.6575 51.7907 30.6564 51.7786 30.6553H51.7775C51.7643 30.6542 51.7466 30.6542 51.7256 30.6542H51.5898V31.155V31.2142H51.5302H51.3624H51.3027L51.3038 31.1594ZM51.5909 30.3956H51.8934C51.963 30.3956 52.0171 30.389 52.0535 30.3759C52.069 30.3704 52.0833 30.3627 52.0944 30.3539C52.1054 30.3452 52.1154 30.3353 52.122 30.3243C52.1297 30.3123 52.1363 30.2991 52.1407 30.2849C52.1452 30.2717 52.1463 30.2575 52.1463 30.2433C52.1463 30.2213 52.1419 30.2027 52.1352 30.1852C52.1275 30.1687 52.1165 30.1534 52.101 30.1402C52.0866 30.1271 52.0657 30.1172 52.0403 30.1096C52.0116 30.1019 51.9762 30.0975 51.9343 30.0975H51.592L51.5909 30.3956Z" fill="#000200"/>
<path fill-rule="evenodd" clip-rule="evenodd" d="M56.3056 23.1649L56.4315 18.3123C56.4415 18.035 56.4933 17.749 56.585 17.4728C56.14 17.3994 55.7194 17.1737 55.3937 16.7846C54.5821 15.8137 54.9366 14.5687 55.8386 13.8126L55.7315 13.6898L55.6752 13.5802C54.2741 10.8493 57.3766 9.52653 58.8374 11.3249L58.908 11.2668L58.9489 11.2383C59.8785 10.6104 61.1902 10.3945 61.9465 11.4137C62.6079 12.3057 62.2844 13.418 61.517 14.0811C61.5347 14.0953 61.5534 14.1085 61.5711 14.1227L61.6462 14.1797L61.7091 14.2498C62.5405 15.1758 62.4566 16.5622 61.4463 17.3183C61.1549 17.5364 60.8446 17.6624 60.531 17.7085C60.6569 18.3704 60.6304 19.0958 60.5597 19.7391V25.338L60.5454 25.4257C60.2142 27.4082 58.3626 27.8761 56.8709 26.7715L56.734 26.6695L56.6656 26.5742C56.5044 26.7364 56.3101 26.8778 56.0793 26.9928C54.3172 27.9298 52.9889 27.0389 52.4612 25.2263L52.4501 25.1879L52.1686 23.863C52.1675 23.8652 52.1653 23.8685 52.1642 23.8706L52.1421 23.9123L52.1167 23.9517C51.2654 25.28 49.8135 25.5901 48.7271 24.8723C48.2501 27.0257 45.4004 27.6821 44.399 25.5934C43.7708 26.3156 42.8776 26.9172 41.662 27.3479L41.588 27.3742L41.5107 27.3895C39.6238 27.7665 37.8186 27.5386 36.6538 25.9868C35.0959 25.4948 33.5833 24.8854 32.1071 24.1939L32.0861 24.6158L32.0629 24.7123C31.6003 26.6575 29.0222 26.9128 28.0042 25.4904C27.9446 25.5693 27.8828 25.6482 27.8176 25.726L27.7911 25.7578L27.7624 25.7874C25.753 27.8674 23.3085 27.5989 21.3421 25.6263L21.2946 25.578L21.2526 25.5243C21.1588 25.4038 21.0694 25.2811 20.9832 25.1583C20.2998 25.9222 19.1791 26.0854 18.1413 25.7928L15.794 25.1068C15.7851 25.4213 15.7597 25.7369 15.7068 26.0668L15.6957 26.1348L15.6769 26.2005C15.3888 27.1835 14.5673 27.7764 13.5703 27.9101L13.5526 27.9123C12.3801 28.0493 11.3588 27.235 11.0541 26.1369L11.0243 26.0285L10.9028 24.0789C10.0902 22.5589 10.1079 20.9106 11.5432 20.0032L11.4769 17.7687C10.7637 18.3167 10.0295 18.8405 9.26874 19.3348L9.33719 19.429L8.20328 20.1994C6.94681 21.223 5.97962 21.1693 5.13278 20.0383C4.46921 18.8767 4.55312 18.32 5.53246 17.6909C6.09555 17.3063 6.53167 16.9216 6.84303 16.5358L6.89271 16.5282C8.17568 15.1232 11.1932 13.1945 14.7064 11.0958C15.9508 10.3594 18.0673 11.1879 16.3869 13.3227C16.0126 13.7117 15.6317 14.0964 15.2441 14.4756C15.5224 14.846 15.6648 15.3183 15.6736 15.8093L15.6747 15.8422L15.6008 17.6317C16.6419 17.0071 17.7328 16.4723 18.8523 15.9835L18.87 15.9758L18.8877 15.9693C19.156 15.863 19.432 15.7895 19.7102 15.7545C20.9954 13.7852 23.9544 14.8153 23.8605 17.5134L23.8594 17.5452L23.8561 17.5758C23.7656 18.5501 23.6508 20.9994 24.0151 21.898C24.1399 22.103 24.3982 22.5085 24.6091 22.7506C24.7935 22.4964 25.0066 22.0821 25.1159 21.8575C25.4747 20.5117 25.7077 19.166 25.9495 17.7972C25.997 16.7649 26.294 15.6734 27.0834 14.9534C27.7635 14.3331 28.7385 14.1063 29.5985 14.4843C30.144 14.7243 30.526 15.1452 30.7358 15.6504C31.0394 15.6274 31.3485 15.6734 31.6378 15.7972C32.9219 15.0389 34.3086 14.812 35.8754 14.903L35.946 14.9074L36.0156 14.9205C36.9541 15.098 37.7336 15.4389 38.2315 15.9463C38.3485 15.8268 38.4711 15.7095 38.5981 15.5934C40.3392 13.4268 43.858 15.1813 44.6243 17.498C44.6684 17.6065 44.7115 17.7161 44.7534 17.8246C44.8274 17.6427 44.908 17.4619 44.9941 17.2821L45.194 16.8668L45.3044 16.8306C45.3221 16.6695 45.3474 16.5194 45.4435 16.3123C45.7217 15.7238 46.2451 15.2822 46.8888 15.1408C48.2656 14.8383 49.2571 15.9068 49.5706 17.1276L50.0807 18.4635L50.8006 16.9797L50.8348 16.926C51.3493 16.1216 52.1586 15.4652 53.1755 15.5748C55.0249 15.7753 55.5571 18.0526 55.5758 19.578C55.6907 20.7287 55.7978 21.8849 56.0274 23.0191C56.1257 23.0619 56.2184 23.1101 56.3056 23.1649ZM11.4648 17.4334L11.4449 16.7572C11.361 15.9079 11.5741 15.0345 12.1902 14.4131C12.7533 13.8443 13.6012 13.578 14.3752 13.8487C14.5784 13.92 14.7561 14.0186 14.9118 14.1413C15.2121 13.875 15.487 13.6142 15.7134 13.3654C14.8886 13.3128 14.426 12.6674 14.5187 11.9364C12.8526 12.755 11.2616 13.7534 9.72032 14.9052C8.81054 15.5353 7.9935 16.2871 7.21401 17.0893C7.24271 17.6405 7.373 18.2235 7.62473 18.7528L7.64792 18.7923C8.08293 18.5249 8.57426 18.4734 8.9077 18.8493L8.92426 18.8723L10.6146 17.7632C10.82 17.6021 11.0817 17.5156 11.361 17.5408L11.4648 17.4334ZM15.7299 11.4224C16.1086 11.4224 16.4145 11.7271 16.4145 12.103C16.4145 12.4789 16.1075 12.7824 15.7299 12.7824C15.3512 12.7824 15.0443 12.4778 15.0443 12.103C15.0443 11.7271 15.3512 11.4224 15.7299 11.4224ZM7.47678 18.8537L7.50218 18.892C7.36637 18.9939 7.2394 19.1156 7.12789 19.2493C6.57363 19.8443 6.15297 19.7852 5.81511 19.5517C5.50596 19.3534 5.35139 19.0115 5.41984 18.6739C5.52584 18.3649 5.68041 18.2663 5.93656 18.2202C6.4058 18.149 6.92363 18.3868 7.47678 18.8537ZM40.9664 23.2011C41.2523 22.9643 41.45 22.6279 41.5538 22.2685C41.7547 21.5704 41.62 20.812 41.3473 20.1424C41.0702 19.9791 40.8394 19.7545 40.6561 19.4805C40.1725 20.0854 39.9362 21.2811 39.8336 22.2126C40.3448 22.389 40.729 22.7309 40.9664 23.2011Z" fill="#000200" stroke="#000200" stroke-width="0.0238486"/>
<path fill-rule="evenodd" clip-rule="evenodd" d="M62.9531 26.3881V24.9591V24.8999H63.0128H63.1375H63.1662H63.2998H63.3429L63.3561 24.9404L63.6973 25.9531L63.7105 25.9925L63.7304 25.9355L64.0749 24.9415L64.0881 24.9021H64.1301H64.2416H64.2615H64.3863H64.4459V24.9613V26.3903V26.4495H64.3863H64.203H64.1433V26.3903V25.5432L63.8408 26.4089L63.8265 26.4484H63.7845H63.6123H63.5703L63.5571 26.4078L63.2568 25.5289V26.3881V26.4473H63.1971H63.0139H62.9542L62.9531 26.3881Z" fill="#000200"/>
<path fill-rule="evenodd" clip-rule="evenodd" d="M62.0959 26.3882V25.1861H61.6807H61.6211V25.1269V24.9581V24.8989H61.6807H62.8224H62.882V24.9581V25.1269V25.1861H62.8224H62.405V26.3882V26.4474H62.3454H62.1555H62.0959V26.3882Z" fill="#000200"/>
<path fill-rule="evenodd" clip-rule="evenodd" d="M27.0381 17.9177C26.7698 19.4355 26.5622 20.7023 26.146 22.2388C25.0275 24.6048 24.2822 24.4656 23.0401 22.3988C22.5996 21.4322 22.615 19.1199 22.7674 17.4804C22.8259 15.7862 20.9777 15.0749 20.3936 16.8492C20.0469 16.7856 19.6759 16.8295 19.2906 16.9818C17.5848 17.7259 16.1704 18.4842 14.8874 19.3993C14.5926 19.5243 14.4944 19.5582 14.4359 19.3051L14.5783 15.8355C14.5739 15.5955 14.5231 15.4004 14.4403 15.2481C14.2139 15.4596 13.9854 15.6689 13.7546 15.876C13.5239 15.8716 13.345 15.6579 13.3881 15.4388C13.6023 15.2558 13.8242 15.0706 14.0439 14.8853C13.387 14.6212 12.3778 15.2799 12.5357 16.6859L12.6538 20.6749C11.2163 21.1845 11.1512 22.3911 11.9759 23.7708L12.1062 25.8552C12.2972 26.5423 12.8901 26.9029 13.4234 26.8404C13.9269 26.7725 14.4469 26.5149 14.6258 25.9034C14.7362 25.2086 14.7097 24.6596 14.6743 24.013C14.7064 23.7971 14.7229 23.7116 15.0155 23.7544L18.4448 24.756C19.2089 24.9719 20.0601 24.8579 20.3792 24.0941C20.6144 23.007 19.7941 22.8744 18.8832 22.7692C17.6587 22.6475 16.4354 22.3779 15.2109 22.0415C14.989 21.9626 14.8344 21.8727 14.9802 21.7741L17.4964 20.5544C18.4239 20.0853 19.3105 19.6821 20.2247 19.1659L20.2368 19.339C20.4311 21.4377 20.8772 23.27 22.116 24.8689C23.7015 26.459 25.4371 26.6289 26.9696 25.0421C28.1013 23.6744 28.3519 22.104 28.7295 20.1982C28.8322 19.5703 28.9426 18.9489 29.1546 18.3725C29.3258 17.9571 29.7431 17.2075 29.8237 16.779C29.9871 14.8908 27.1485 14.6169 27.0381 17.9177Z" fill="#FE9DE2" stroke="#000200" stroke-width="0.0238486"/>
<path fill-rule="evenodd" clip-rule="evenodd" d="M37.344 25.0671C35.1623 24.4063 33.0976 23.5154 31.0992 22.4918L30.9987 24.4655C30.7315 25.5899 29.0489 25.58 28.7431 24.5488C28.4703 22.8622 28.732 21.3093 29.5281 19.888L29.7113 18.0633C29.8593 16.6441 31.1953 16.3975 31.5828 17.1515C32.7785 16.2233 34.0858 15.8902 35.8104 15.991C37.768 16.3614 38.0186 17.1965 37.4809 18.346C36.676 19.4814 34.565 20.2123 32.5345 20.8501C33.9621 21.7926 35.4184 22.4414 36.8858 22.9828C36.8262 20.3417 37.4467 18.0699 39.4031 16.3384C40.4807 14.8819 43.0643 16.1828 43.5943 17.8726C45.3565 22.1893 44.7525 25.1055 41.2923 26.3296C39.6173 26.6638 38.1975 26.46 37.344 25.0671ZM38.6755 23.1745C39.7741 23.0518 40.1937 23.6041 40.1495 24.6178C42.1049 24.5411 43.6098 22.22 42.1733 19.317C41.47 19.1362 41.3718 18.4041 41.1973 18.0228C39.5113 18.1236 38.7153 20.5718 38.6755 23.1745ZM32.0874 19.0989L32.3468 18.86C33.3615 18.2003 34.0162 17.9702 34.6986 18.0414C33.8606 18.4578 32.9927 18.8162 32.0874 19.0989Z" fill="#FE9DE2" stroke="#000200" stroke-width="0.0238486"/>
<path fill-rule="evenodd" clip-rule="evenodd" d="M55.1511 24.0745C55.8975 23.5725 56.8216 25.429 55.5795 26.0306C54.6852 26.5117 53.9377 26.3868 53.5137 24.9271L52.5068 20.1862C52.1523 21.2482 51.7538 22.3101 51.1973 23.372C50.3935 24.6257 49.2817 24.2246 48.8047 23.372L47.747 20.9643L47.6962 24.4262C47.5615 25.8432 45.5642 26.5632 45.2031 24.5271C44.9547 22.1873 44.9547 19.8925 45.9837 17.7545C46.5126 17.5791 46.2863 17.1024 46.4375 16.7758C46.8505 15.9046 48.1643 15.8827 48.5276 17.4531L49.9629 21.2153L51.7604 17.5112C52.8811 15.7589 54.4743 16.7945 54.4853 19.6394C54.6322 21.1178 54.7646 22.5961 55.1511 24.0745Z" fill="#FE9DE2" stroke="#000200" stroke-width="0.0238486"/>
<path fill-rule="evenodd" clip-rule="evenodd" d="M59.4682 19.6799C59.923 15.727 57.5868 16.5555 57.5249 18.3462L57.3936 23.3927C57.1926 24.2684 57.0954 25.3051 57.5249 25.9023C58.173 26.3823 59.2407 26.6081 59.4682 25.2492V19.6799Z" fill="#FE9DE2" stroke="#000200" stroke-width="0.0238486"/>
<path fill-rule="evenodd" clip-rule="evenodd" d="M59.2418 16.1721C60.3658 17.5529 61.9369 16.0153 60.9543 14.9205C60.5866 14.64 60.2245 14.3441 59.8734 14.0274C60.0986 13.8499 60.3316 13.6778 60.5723 13.509C61.9292 12.8208 61.2115 10.9293 59.5223 12.0712L58.6677 12.7803C58.5021 12.5808 58.342 12.3748 58.1885 12.1589C57.5216 11.0214 55.6944 11.394 56.5821 13.1233L57.2854 13.9288L56.5302 14.5556C55.139 15.6712 56.6085 17.1529 57.7115 16.1764C57.9489 15.8707 58.204 15.577 58.4756 15.2921L59.2418 16.1721Z" fill="#FE9DE2" stroke="#000200" stroke-width="0.0238486"/>
</svg>
