<svg width="34" height="29" viewBox="0 0 34 29" fill="none" xmlns="http://www.w3.org/2000/svg">
<path d="M31.384 0.120117H23.1043C21.8495 0.120117 20.6461 0.618587 19.7588 1.50587C18.8715 2.39315 18.373 3.59656 18.373 4.85137V17.8623C18.373 18.176 18.2484 18.4769 18.0266 18.6987C17.8048 18.9205 17.5039 19.0451 17.1902 19.0451C16.8765 19.0451 16.5757 18.9205 16.3539 18.6987C16.132 18.4769 16.0074 18.176 16.0074 17.8623V4.85137C16.0074 3.59656 15.509 2.39315 14.6217 1.50587C13.7344 0.618587 12.531 0.120117 11.2762 0.120117H2.99648C2.36908 0.120117 1.76738 0.369352 1.32373 0.812993C0.880094 1.25663 0.630859 1.85834 0.630859 2.48574V21.4107C0.630859 22.0381 0.880094 22.6398 1.32373 23.0835C1.76738 23.5271 2.36908 23.7764 2.99648 23.7764H12.459C13.4001 23.7764 14.3026 24.1502 14.9681 24.8157C15.6336 25.4811 16.0074 26.3837 16.0074 27.3248C16.0074 27.6385 16.132 27.9394 16.3539 28.1612C16.5757 28.383 16.8765 28.5076 17.1902 28.5076C17.5039 28.5076 17.8048 28.383 18.0266 28.1612C18.2484 27.9394 18.373 27.6385 18.373 27.3248C18.373 26.3837 18.7469 25.4811 19.4124 24.8157C20.0778 24.1502 20.9804 23.7764 21.9215 23.7764H31.384C32.0114 23.7764 32.6131 23.5271 33.0567 23.0835C33.5004 22.6398 33.7496 22.0381 33.7496 21.4107V2.48574C33.7496 1.85834 33.5004 1.25663 33.0567 0.812993C32.6131 0.369352 32.0114 0.120117 31.384 0.120117ZM29.0184 17.8623H23.1043C22.7906 17.8623 22.4897 17.7377 22.2679 17.5159C22.0461 17.294 21.9215 16.9932 21.9215 16.6795C21.9215 16.3658 22.0461 16.0649 22.2679 15.8431C22.4897 15.6213 22.7906 15.4967 23.1043 15.4967H29.0184C29.3321 15.4967 29.6329 15.6213 29.8547 15.8431C30.0766 16.0649 30.2012 16.3658 30.2012 16.6795C30.2012 16.9932 30.0766 17.294 29.8547 17.5159C29.6329 17.7377 29.3321 17.8623 29.0184 17.8623ZM29.0184 13.1311H23.1043C22.7906 13.1311 22.4897 13.0064 22.2679 12.7846C22.0461 12.5628 21.9215 12.2619 21.9215 11.9482C21.9215 11.6345 22.0461 11.3337 22.2679 11.1119C22.4897 10.89 22.7906 10.7654 23.1043 10.7654H29.0184C29.3321 10.7654 29.6329 10.89 29.8547 11.1119C30.0766 11.3337 30.2012 11.6345 30.2012 11.9482C30.2012 12.2619 30.0766 12.5628 29.8547 12.7846C29.6329 13.0064 29.3321 13.1311 29.0184 13.1311ZM29.0184 8.3998H23.1043C22.7906 8.3998 22.4897 8.27519 22.2679 8.05337C22.0461 7.83155 21.9215 7.53069 21.9215 7.21699C21.9215 6.90329 22.0461 6.60244 22.2679 6.38062C22.4897 6.1588 22.7906 6.03418 23.1043 6.03418H29.0184C29.3321 6.03418 29.6329 6.1588 29.8547 6.38062C30.0766 6.60244 30.2012 6.90329 30.2012 7.21699C30.2012 7.53069 30.0766 7.83155 29.8547 8.05337C29.6329 8.27519 29.3321 8.3998 29.0184 8.3998Z" fill="white"/>
</svg>
