<svg width="16" height="16" viewBox="0 0 16 16" fill="none" xmlns="http://www.w3.org/2000/svg">
<g clip-path="url(#clip0_2747_337)">
<path d="M14.5286 12.4689C14.2867 13.0279 14.0002 13.5424 13.6684 14.0155C13.2161 14.6604 12.8457 15.1068 12.5603 15.3547C12.1178 15.7616 11.6438 15.97 11.1361 15.9818C10.7717 15.9818 10.3322 15.8781 9.82063 15.6678C9.30736 15.4584 8.83567 15.3547 8.40438 15.3547C7.95204 15.3547 7.46692 15.4584 6.94803 15.6678C6.42834 15.8781 6.00969 15.9878 5.6896 15.9986C5.2028 16.0194 4.71758 15.8051 4.23325 15.3547C3.92412 15.0851 3.53747 14.6229 3.07427 13.9681C2.5773 13.2688 2.16872 12.458 1.84863 11.5336C1.50583 10.5351 1.33398 9.56821 1.33398 8.63214C1.33398 7.55987 1.56568 6.63506 2.02976 5.86007C2.39449 5.23757 2.87971 4.74653 3.487 4.38604C4.09429 4.02556 4.75047 3.84186 5.45711 3.83011C5.84377 3.83011 6.35081 3.94971 6.98092 4.18477C7.60924 4.42061 8.01268 4.54021 8.18957 4.54021C8.32181 4.54021 8.76999 4.40036 9.52977 4.12156C10.2483 3.863 10.8547 3.75594 11.3514 3.79811C12.6976 3.90675 13.7089 4.4374 14.3815 5.39342C13.1776 6.12288 12.582 7.14458 12.5939 8.45525C12.6047 9.47616 12.9751 10.3257 13.703 11.0003C14.0328 11.3133 14.4012 11.5553 14.8111 11.7272C14.7222 11.9849 14.6284 12.2318 14.5286 12.4689ZM11.4413 0.320091C11.4413 1.12027 11.149 1.8674 10.5663 2.55894C9.86309 3.38104 9.01255 3.85608 8.09021 3.78112C8.07846 3.68513 8.07165 3.58409 8.07165 3.47792C8.07165 2.70975 8.40605 1.88765 8.99991 1.21547C9.2964 0.875136 9.67347 0.592152 10.1307 0.36641C10.587 0.144037 11.0186 0.0210594 11.4245 0C11.4364 0.106972 11.4413 0.213951 11.4413 0.320081V0.320091Z" fill="#121212"/>
</g>
<defs>
<clipPath id="clip0_2747_337">
<rect width="16" height="16" fill="white"/>
</clipPath>
</defs>
</svg>
